<?xml version="1.0" encoding="UTF-8" standalone="no"?>
<svg
   xmlns:dc="http://purl.org/dc/elements/1.1/"
   xmlns:cc="http://creativecommons.org/ns#"
   xmlns:rdf="http://www.w3.org/1999/02/22-rdf-syntax-ns#"
   xmlns:svg="http://www.w3.org/2000/svg"
   xmlns="http://www.w3.org/2000/svg"
   xmlns:sodipodi="http://sodipodi.sourceforge.net/DTD/sodipodi-0.dtd"
   xmlns:inkscape="http://www.inkscape.org/namespaces/inkscape"
   version="1.1"
   id="svg2"
   xml:space="preserve"
   width="933.33331"
   height="933.33331"
   viewBox="0 0 933.33331 933.33331"
   sodipodi:docname="logo1.svg"
   inkscape:version="1.0 (6e3e5246a0, 2020-05-07)"><metadata
     id="metadata8"><rdf:RDF><cc:Work
         rdf:about=""><dc:format>image/svg+xml</dc:format><dc:type
           rdf:resource="http://purl.org/dc/dcmitype/StillImage" /><dc:title /></cc:Work></rdf:RDF></metadata><defs
     id="defs6"><clipPath
       clipPathUnits="userSpaceOnUse"
       id="clipPath22"><path
         d="M 0,700 H 700 V 0 H 0 Z"
         id="path20" /></clipPath></defs><sodipodi:namedview
     inkscape:document-rotation="0"
     pagecolor="#ffffff"
     bordercolor="#666666"
     borderopacity="1"
     objecttolerance="10"
     gridtolerance="10"
     guidetolerance="10"
     inkscape:pageopacity="0"
     inkscape:pageshadow="2"
     inkscape:window-width="1871"
     inkscape:window-height="1025"
     id="namedview4"
     showgrid="false"
     inkscape:zoom="0.89464288"
     inkscape:cx="474.52396"
     inkscape:cy="606.78843"
     inkscape:window-x="49"
     inkscape:window-y="25"
     inkscape:window-maximized="1"
     inkscape:current-layer="g10" /><g
     id="g10"
     inkscape:groupmode="layer"
     inkscape:label="logo1"
     transform="matrix(1.3333333,0,0,-1.3333333,0,933.33333)"><g
       transform="matrix(0.62874409,0,0,0.62874409,28.49378,114.51916)"
       id="g161"><text
         transform="scale(1,-1)"
         id="text14"
         style="font-style:normal;font-variant:normal;font-weight:normal;font-stretch:normal;font-size:82.8963px;font-family:'Varela Round';-inkscape-font-specification:'Varela Round, Normal';font-variant-ligatures:normal;font-variant-caps:normal;font-variant-numeric:normal;font-variant-east-asian:normal;writing-mode:lr-tb;white-space:pre;inline-size:691.76;fill:#05af32;fill-opacity:1;fill-rule:nonzero;stroke:none;stroke-width:1.31418"
         x="266.62683"
         y="-317.19528"
         xml:space="preserve"><tspan
           x="266.62683"
           y="-317.19528"><tspan
             style="stroke-width:1.31418">WaveDownloader</tspan></tspan></text><g
         id="g16"><g
           clip-path="url(#clipPath22)"
           id="g18"><g
             transform="translate(231.2061,387.6162)"
             id="g24"><path
               id="path26"
               style="fill:#dd8843;fill-opacity:1;fill-rule:nonzero;stroke:none"
               d="m 0,0 c 1.955,-2.085 4.688,-3.496 6.971,-5.185 3.126,-2.312 5.908,-5.286 8.433,-8.227 2.706,-3.151 5.099,-6.523 6.761,-10.345 1.572,-3.616 2.546,-7.487 2.93,-11.41 0.752,-7.686 -0.841,-15.361 -4.615,-22.099 -3.741,-6.676 -9.36,-12.343 -15.978,-16.183 -3.969,-2.304 -8.465,-4.092 -13.049,-4.62 -5.076,-0.585 -10.121,0.581 -15.195,0.584 12.94,-0.008 26.414,6.583 33.946,17.176 8.277,11.644 7.044,27.232 2.218,39.999 C 9.609,-12.87 5.451,-5.815 0,0" /></g><g
             transform="translate(189.0332,360.1929)"
             id="g28"><path
               id="path30"
               style="fill:#7721ba;fill-opacity:1;fill-rule:nonzero;stroke:none"
               d="m 0,0 c 2.675,2.319 5.241,4.93 8.5,6.43 3.161,1.455 6.882,1.48 10.198,0.528 3.226,-0.925 5.944,-2.966 8.3,-5.298 2.304,-2.28 3.482,-5.452 3.749,-8.647 0.569,-6.821 -4.012,-12.203 -9.982,-14.89 -7.08,-3.187 -14.92,-2.313 -21.998,0.425 -4.372,1.692 -8.487,4.005 -12.451,6.492 -4.17,2.615 -8.171,5.505 -11.923,8.693 3.245,-2.757 7.661,-4.097 11.559,-5.648 4.603,-1.83 9.505,-3.345 14.502,-3.383 4.243,-0.033 8.382,1.259 10.987,4.784 2.368,3.204 2.816,7.65 -1.017,9.927 C 7.171,1.346 2.335,1.132 -0.885,-0.775 -0.589,-0.514 -0.295,-0.255 0,0" /></g><g
             transform="translate(174.7617,321.7812)"
             id="g32"><path
               id="path34"
               style="fill:#c11d6f;fill-opacity:1;fill-rule:nonzero;stroke:none"
               d="m 0,0 c -8.571,4.555 -16.792,9.732 -25.189,14.594 -7.223,4.18 -14.824,8.508 -23.154,9.944 -3.846,0.663 -7.83,1.604 -11.57,0.41 -4.283,-1.365 -7.884,-3.404 -10.849,-6.729 -2.98,-3.343 -4.959,-8.888 -4.968,-13.438 -0.011,-5.699 0,-12.398 0,-18.098 L -56.999,1.134 H -68.698 V 7.89 h -0.08 c 2.011,7.214 11.082,8.21 17.976,7.408 10.013,-1.165 16.707,-5.618 25.781,-9.757 10.187,-4.643 18.867,-10.997 29.598,-14.373 7.276,-2.291 18.712,-4.719 26.222,-2.525 C 19.969,-9.647 9.615,-5.11 0,0" /></g><g
             transform="translate(241.9697,342.7402)"
             id="g36"><path
               id="path38"
               style="fill:#05af32;fill-opacity:1;fill-rule:nonzero;stroke:none"
               d="m 0,0 c -0.89,-4.07 -2.61,-7.94 -5.01,-11.351 -6.17,-8.759 -16.469,-14.239 -27.12,-14.929 -11.88,-0.77 -23.48,3.87 -33.63,9.639 -9.74,5.54 -18.28,13.031 -28.219,18.21 -8.621,4.491 -19.011,7.151 -28.761,6.271 -4.35,-0.39 -8.63,-1.64 -12.29,-4.05 -3.949,-2.58 -7.56,-6.641 -9.11,-11.13 -0.85,-2.45 -1.15,-5.03 -1.26,-7.631 V -34.24 l -0.63,0.45 -10.02,7.05 -1.86,1.37 -7.31,5.42 h 12.59 v 1.41 c 0.23,2.06 0.5,7.019 0.81,8.51 0.8,3.84 2.27,7.57 4.631,10.719 2.439,3.25 5.619,5.841 8.739,8.391 5.3,4.33 11.71,6.47 18.44,7.17 3.46,0.37 7.21,0.18 10.76,-0.37 2.7,-0.42 5.18,-1.34 7.66,-2.45 2.76,-1.22 5.59,-2.23 8.39,-3.36 5.95,-2.39 11.74,-5.16 17.32,-8.32 5.47,-3.11 10.74,-6.46 16.45,-9.141 5.66,-2.639 11.58,-4.779 17.73,-5.949 3.42,-0.65 6.761,-1.011 10.19,-0.16 3.36,0.84 6.49,2.5 9.27,4.529 4.72,3.441 6.53,7.87 7.53,13.551 3.3,18.71 -7.7,26.42 -25.31,29.72 -17.61,3.3 -25.32,-18.71 -25.32,-18.71 -3.3,15.41 8.81,31.91 26.42,33.02 12.08,0.75 24.14,-4.36 31.38,-14.19 C -2.979,28.22 -0.59,20.71 0.3,13.13 0.82,8.75 0.94,4.33 0,0" /></g></g></g></g></g></svg>
