<?xml version="1.0" encoding="iso-8859-1"?>
<!-- Generator: Adobe Illustrator 19.0.0, SVG Export Plug-In . SVG Version: 6.00 Build 0)  -->
<svg version="1.1" id="Layer_1" xmlns="http://www.w3.org/2000/svg" xmlns:xlink="http://www.w3.org/1999/xlink" x="0px" y="0px"
	 viewBox="0 0 512 512" style="enable-background:new 0 0 512 512;" xml:space="preserve">
<g transform="translate(1 1)">
	<g>
		<path style="fill:#FECC00;" d="M288.134,340.333h26.453c14.507,0,25.6,11.093,25.6,25.6s-11.093,25.6-25.6,25.6h-59.733
			c-2.56,0-4.267,0-5.973-0.853L288.134,340.333z"/>
		<path style="fill:#FECC00;" d="M220.72,425.667h25.6c13.653,0,25.6,11.093,25.6,25.6s-11.947,25.6-25.6,25.6h-59.733
			c-1.707,0-3.413,0-5.12-0.853L220.72,425.667z"/>
	</g>
	<g>
		<path style="fill:#FFA800;" d="M340.187,391.533h-25.6c14.507,0,25.6-11.093,25.6-25.6s-11.093-25.6-25.6-25.6h25.6
			c14.507,0,25.6,11.093,25.6,25.6S354.694,391.533,340.187,391.533"/>
		<path style="fill:#FFA800;" d="M271.92,476.867h-25.6c13.653,0,25.6-11.093,25.6-25.6c0-13.653-11.093-25.6-25.6-25.6l0,0h25.6
			c13.653,0,25.6,11.093,25.6,25.6S285.574,476.867,271.92,476.867"/>
	</g>
	<g>
		<path style="fill:#FECC00;" d="M288.134,169.667h26.453c14.507,0,25.6-11.947,25.6-25.6c0-13.653-11.093-25.6-25.6-25.6h-59.733
			c-2.56,0-4.267,0-5.973,0.853L288.134,169.667z"/>
		<path style="fill:#FECC00;" d="M220.72,84.333h25.6c13.653,0,25.6-11.093,25.6-25.6s-11.947-25.6-25.6-25.6h-59.733
			c-1.707,0-3.413,0-5.12,0.853L220.72,84.333z"/>
	</g>
	<path style="fill:#FFE100;" d="M348.72,203.8h-8.533L187.44,8.387c-0.853-0.853-0.853-0.853-1.707-0.853h-40.107
		c-0.853,0-1.707,0.853-1.707,1.707l58.88,201.387c0,0.853,0,1.707-0.853,0.853c-10.24-3.413-69.973-19.627-100.693,8.533H100.4
		l-48.64-58.88c-0.853,0-0.853,0-1.707,0h-6.827c-0.853,0-1.707,0.853-1.707,2.56L74.8,255v0.853l-33.28,90.453
		c0,0.853,0,2.56,1.707,2.56h6.827c0.853,0,0.853,0,0.853-0.853l48.64-58.88c0.853,0,0.853,0,0.853,0
		c30.72,29.013,90.453,11.947,100.693,8.533c0.853,0,1.707,0,0.853,0.853l-58.88,201.387c0,0.853,0.853,1.707,1.707,1.707h40.107
		c0.853,0,0.853,0,0.853-0.853L340.187,306.2h8.533c65.707,0,119.467-23.04,119.467-51.2S414.427,203.8,348.72,203.8"/>
	<path style="fill:#FFA800;" d="M374.32,203.8h-25.6c65.707,0,119.467,23.04,119.467,51.2s-53.76,51.2-119.467,51.2h25.6
		c65.707,0,119.467-23.04,119.467-51.2S440.027,203.8,374.32,203.8"/>
	<path style="fill:#FFFFFF;" d="M41.52,346.307L74.8,255v-0.853l-33.28-90.453c0-0.853,0-0.853,0-1.707l0,0
		c0-0.853,0-0.853-0.853-0.853H18.48c-0.853,0-1.707,0.853-1.707,2.56l33.28,90.453V255l-33.28,91.307
		c0,0.853,0.853,2.56,1.707,2.56h22.187c0.853,0,0.853,0,1.707-0.853l0,0C41.52,348.013,41.52,347.16,41.52,346.307"/>
	<g>
		<path style="fill:#FFA800;" d="M340.187,118.467h-25.6c14.507,0,25.6,11.947,25.6,25.6c0,13.653-11.093,25.6-25.6,25.6h25.6
			c14.507,0,25.6-11.947,25.6-25.6C365.787,130.413,354.694,118.467,340.187,118.467"/>
		<path style="fill:#FFA800;" d="M271.92,33.133h-25.6c13.653,0,25.6,11.093,25.6,25.6c0,13.653-11.093,25.6-25.6,25.6l0,0h25.6
			c13.653,0,25.6-11.093,25.6-25.6S285.574,33.133,271.92,33.133"/>
	</g>
	<path d="M185.734,511h-40.107c-3.413,0-5.973-1.707-7.68-4.267s-2.56-5.973-1.707-8.533l54.613-187.733
		c-21.333,5.12-61.44,10.24-89.6-9.387l-53.76,53.76c-1.707,1.707-4.267,2.56-6.827,2.56H18.48c-3.413,0-6.827-1.707-8.533-4.267
		s-2.56-5.973-0.853-9.387L40.667,255L8.24,166.253c-0.853-3.413-0.853-6.827,0.853-9.387c1.707-2.56,5.12-4.267,8.533-4.267h22.187
		c2.56,0,5.12,0.853,6.827,3.413l53.76,53.76c27.307-19.627,68.267-14.507,89.6-9.387L135.387,12.653
		c-0.853-2.56,0-5.973,1.707-8.533S143.067-1,145.627-1h40.107c3.413,0,5.973,1.707,7.68,4.267l151.04,192h29.867
		c73.387,0,128,25.6,128,59.733s-54.613,59.733-128,59.733h-29.867l-151.04,192C191.707,509.293,189.147,511,185.734,511z
		 M152.454,502.467L152.454,502.467C152.454,503.32,152.454,503.32,152.454,502.467z M180.614,496.493L180.614,496.493
		L180.614,496.493z M155.014,493.933h27.307l153.6-196.267h38.4c65.707,0,110.933-22.187,110.933-42.667
		s-45.227-42.667-110.933-42.667h-38.4L182.32,16.067h-27.307l56.32,192c0.853,3.413,0,6.827-2.56,9.387
		c-2.56,2.56-5.973,3.413-9.387,1.707c-17.067-5.973-67.413-16.213-91.307,6.827c-3.413,3.413-9.387,3.413-12.8,0l-57.173-56.32
		h-10.24l29.867,81.92c0.853,2.56,0.853,5.12,0,6.827l-29.867,81.92h10.24l58.88-58.88h7.68l2.56,2.56
		c29.867,27.307,91.307,6.827,91.307,6.827c3.413-0.853,6.827,0,9.387,1.707c2.56,2.56,3.413,5.973,2.56,9.387L155.014,493.933z
		 M24.454,349.72L24.454,349.72L24.454,349.72z M204.507,306.2L204.507,306.2L204.507,306.2z M204.507,203.8L204.507,203.8
		L204.507,203.8z M24.454,160.28L24.454,160.28L24.454,160.28z M180.614,13.507L180.614,13.507L180.614,13.507z M152.454,6.68
		L152.454,6.68L152.454,6.68z"/>
	<path d="M425.52,280.6c-2.56,0-4.267-0.853-5.973-2.56c-3.413-3.413-3.413-8.533,0-11.947c4.267-4.267,5.973-7.68,5.973-11.093
		s-1.707-6.827-5.973-11.093c-3.413-3.413-3.413-8.533,0-11.947c3.413-3.413,8.533-3.413,11.947,0
		c7.68,7.68,11.093,15.36,11.093,23.04s-4.267,15.36-11.093,23.04C429.787,279.747,427.227,280.6,425.52,280.6z"/>
	<path d="M340.187,178.2h-30.72l-50.347-64l12.8-3.413c3.413-0.853,5.973-0.853,8.533-0.853h59.733
		c18.773,0,34.133,15.36,34.133,34.133S358.96,178.2,340.187,178.2z M318,161.133h22.187c9.387,0,17.067-7.68,17.067-17.067
		c0-9.387-7.68-17.067-17.067-17.067h-49.493L318,161.133z"/>
	<path d="M271.92,92.867h-29.013L192.56,28.013l13.653-2.56c1.707-0.853,3.413-0.853,5.973-0.853h59.733
		c18.773,0,34.133,15.36,34.133,34.133S290.694,92.867,271.92,92.867z M250.587,75.8h21.333c9.387,0,17.067-7.68,17.067-17.067
		s-7.68-17.067-17.067-17.067h-47.787L250.587,75.8z"/>
	<path d="M341.04,400.067h-59.733c-2.56,0-5.12,0-8.533-0.853l-12.8-3.413l50.347-64h30.72c18.773,0,34.133,15.36,34.133,34.133
		S359.814,400.067,341.04,400.067z M292.4,383h49.493c9.387,0,17.067-7.68,17.067-17.067s-7.68-17.067-17.067-17.067h-22.187
		L292.4,383z"/>
	<path d="M272.774,485.4H213.04c-2.56,0-4.267,0-6.827-0.853l-13.653-2.56l50.347-64.853h29.013
		c18.773,0,34.133,15.36,34.133,34.133S291.547,485.4,272.774,485.4z M224.987,468.333h47.787c9.387,0,17.067-7.68,17.067-17.067
		s-7.68-17.067-17.067-17.067H251.44L224.987,468.333z"/>
</g>
<g>
</g>
<g>
</g>
<g>
</g>
<g>
</g>
<g>
</g>
<g>
</g>
<g>
</g>
<g>
</g>
<g>
</g>
<g>
</g>
<g>
</g>
<g>
</g>
<g>
</g>
<g>
</g>
<g>
</g>
</svg>
