<?xml version="1.0" encoding="iso-8859-1"?>
<!-- Generator: Adobe Illustrator 19.0.0, SVG Export Plug-In . SVG Version: 6.00 Build 0)  -->
<svg version="1.1" id="Layer_1" xmlns="http://www.w3.org/2000/svg" xmlns:xlink="http://www.w3.org/1999/xlink" x="0px" y="0px"
	 viewBox="0 0 512 512" style="enable-background:new 0 0 512 512;" xml:space="preserve">
<circle style="fill:#FFC200;" cx="256" cy="256" r="256"/>
<g>
	<path style="fill:#F2B800;" d="M256,0c-6.74,0-13.392,0.34-20,0.852C368.028,11.068,472,121.348,472,256
		c0,134.656-103.972,244.928-236,255.148c6.608,0.512,13.26,0.852,20,0.852c141.392,0,256-114.608,256-256S397.392,0,256,0z"/>
	<path style="fill:#F2B800;" d="M255.848,292c61.604,0,120.028,26.044,160.28,71.452c3.94,4.436,5.916,10.164,5.568,16.1
		c-0.36,5.932-3.004,11.376-7.444,15.316c-4.084,3.616-9.32,5.608-14.768,5.608c-6.372,0-12.432-2.74-16.66-7.5
		c-31.816-35.88-78.092-56.46-126.972-56.46c-48.752,0-94.932,20.468-126.696,56.156c-4.228,4.748-10.288,7.464-16.636,7.464
		c-5.456,0-10.712-2-14.792-5.632c-4.44-3.952-7.076-9.4-7.42-15.332c-0.352-5.932,1.64-11.656,5.588-16.096
		C136.092,317.908,194.4,292,255.848,292z"/>
</g>
<path style="fill:#F5F5F5;" d="M255.848,303.128c58.424,0,113.808,24.676,151.952,67.704c4.084,4.596,3.652,11.632-0.94,15.712
	c-4.6,4.084-11.632,3.656-15.712-0.94c-33.92-38.264-83.244-60.212-135.3-60.212c-51.932,0-101.14,21.828-135.012,59.892
	c-4.084,4.584-11.116,5-15.712,0.916c-4.592-4.084-5.004-11.124-0.916-15.716C142.3,327.676,197.568,303.128,255.848,303.128z"/>
<g>
	<path style="fill:#263740;" d="M204,148c-6.628,0-12,5.372-12,12c0,19.848-16.152,36-36,36s-36-16.152-36-36
		c0-6.628-5.372-12-12-12s-12,5.372-12,12c0,33.084,26.916,60,60,60s60-26.916,60-60C216,153.372,210.628,148,204,148z"/>
	<path style="fill:#263740;" d="M404,148c-6.628,0-12,5.372-12,12c0,19.848-16.152,36-36,36s-36-16.152-36-36
		c0-6.628-5.372-12-12-12s-12,5.372-12,12c0,33.084,26.916,60,60,60s60-26.916,60-60C416,153.372,410.628,148,404,148z"/>
</g>
<g>
	<path style="fill:#91D2F2;" d="M420,256c0,6.628-5.372,12-12,12s-12-5.372-12-12s5.372-24,12-24S420,249.372,420,256z"/>
	<path style="fill:#91D2F2;" d="M112,280c0,6.628-5.372,12-12,12s-12-5.372-12-12s5.372-24,12-24S112,273.372,112,280z"/>
	<path style="fill:#91D2F2;" d="M436,312c0,6.628-5.372,12-12,12s-12-5.372-12-12s5.372-24,12-24S436,305.372,436,312z"/>
</g>
<g>
</g>
<g>
</g>
<g>
</g>
<g>
</g>
<g>
</g>
<g>
</g>
<g>
</g>
<g>
</g>
<g>
</g>
<g>
</g>
<g>
</g>
<g>
</g>
<g>
</g>
<g>
</g>
<g>
</g>
</svg>
