<?xml version="1.0"?>
<svg xmlns="http://www.w3.org/2000/svg" height="512px" viewBox="-24 0 480 480" width="512px" class=""><g><path d="m384 188.800781v-188.800781h-336v180.800781l-40.800781 40.800781c-4.800781 4.796876-7.199219 10.398438-7.199219 16.796876v217.601562c0 13.601562 10.398438 24 24 24h384c13.601562 0 24-10.398438 24-24v-209.601562c0-6.398438-2.398438-12.796876-7.199219-16.796876zm26.398438 49.597657-26.398438 14.402343v-40.800781zm-42.398438-222.398438v244.800781l-148 80c-2.398438 1.597657-5.601562 1.597657-8 0l-148-85.601562v-239.199219zm-320 229.601562-27.199219-15.203124 27.199219-27.199219zm360 218.398438h-384c-4.800781 0-8-3.199219-8-8v-210.398438l188 108.796876c7.199219 4 16 4 23.199219 0l188.800781-100.796876v202.398438c0 4.800781-3.199219 8-8 8zm0 0" data-original="#000000" class="active-path" data-old_color="#000000" fill="#05AF32"/><path d="m216 160c35.199219 0 64-28.800781 64-64h-16c0 26.398438-21.601562 48-48 48s-48-21.601562-48-48 21.601562-48 48-48c7.199219 0 14.398438 1.601562 20.800781 4.800781l7.199219-14.402343c-8.800781-4-18.398438-6.398438-28-6.398438-35.199219 0-64 28.800781-64 64s28.800781 64 64 64zm0 0" data-original="#000000" class="active-path" data-old_color="#000000" fill="#05AF32"/><path d="m197.601562 82.398438-11.203124 11.203124 29.601562 29.597657 61.601562-61.597657-11.203124-11.203124-50.398438 50.402343zm0 0" data-original="#000000" class="active-path" data-old_color="#000000" fill="#05AF32"/><path d="m272 176h72v16h-72zm0 0" data-original="#000000" class="active-path" data-old_color="#000000" fill="#05AF32"/><path d="m88 208h72v16h-72zm0 0" data-original="#000000" class="active-path" data-old_color="#000000" fill="#05AF32"/><path d="m88 240h256v16h-256zm0 0" data-original="#000000" class="active-path" data-old_color="#000000" fill="#05AF32"/><path d="m144 272h144v16h-144zm0 0" data-original="#000000" class="active-path" data-old_color="#000000" fill="#05AF32"/><path d="m40 416h64v16h-64zm0 0" data-original="#000000" class="active-path" data-old_color="#000000" fill="#05AF32"/><path d="m176 208h168v16h-168zm0 0" data-original="#000000" class="active-path" data-old_color="#000000" fill="#05AF32"/><path d="m88 176h168v16h-168zm0 0" data-original="#000000" class="active-path" data-old_color="#000000" fill="#05AF32"/></g> </svg>
