<svg enable-background="new 0 0 24 24" height="512" viewBox="0 0 24 24" width="512" xmlns="http://www.w3.org/2000/svg"><path d="m12.575 13.891-3.785-1.583c-.232-.095-.496-.07-.705.068-.21.139-.335.373-.335.624v5.75c0 .31.19.588.479.699.088.034.18.051.271.051.207 0 .41-.086.555-.246l3.786-4.167c.164-.18.23-.429.177-.667-.053-.237-.218-.435-.443-.529z" fill="#2196f3"/><path d="m23.76.2c-.21-.195-.514-.253-.782-.149l-22.5 8.75c-.289.112-.479.391-.478.702s.193.588.483.698l17.75 6.75c.086.032.177.049.267.049.113 0 .226-.025.33-.076.187-.092.327-.256.388-.454l4.75-15.5c.083-.275.003-.574-.208-.77z" fill="#64b5f6"/><g fill="#2196f3"><path d="m7.75 13 11.25-8-8.417 9.333z"/><path d="m8.236 19.854c-.189 0-.382-.054-.552-.167-.46-.305-.586-.926-.28-1.386.282-.426.445-.737.456-.759.254-.49.854-.682 1.345-.431s.685.853.435 1.344c0 0-.203.399-.569.951-.193.291-.51.448-.835.448z"/><path d="m4.25 22.75c-.613 0-1.14-.072-1.609-.22-.527-.166-.82-.728-.654-1.254.166-.528.729-.819 1.254-.654.413.13 1.015.241 1.663.006.518-.185 1.092.08 1.281.6.188.519-.08 1.093-.6 1.281-.441.16-.891.241-1.335.241z"/><path d="m1.029 19.251c-.522 0-.962-.405-.997-.935-.021-.333-.032-.688-.032-1.066 0-.553.447-1 1-1s1 .447 1 1c0 .331.009.644.028.936.036.551-.382 1.027-.933 1.063-.022.001-.043.002-.066.002z"/></g></svg>