<?xml version="1.0"?>
<svg xmlns="http://www.w3.org/2000/svg" xmlns:xlink="http://www.w3.org/1999/xlink" version="1.1" id="Capa_1" x="0px" y="0px" viewBox="0 0 29.176 29.176" style="enable-background:new 0 0 29.176 29.176;" xml:space="preserve" width="512px" height="512px"><g transform="matrix(-1 0 0 -1 29.176 29.176)"><g>
	<path d="M19.451,2.243c0-0.894-0.726-1.623-1.619-1.623H1.62C0.725,0.62,0,1.349,0,2.243v17.139c0,0.896,0.725,1.623,1.62,1.623   h5.75V7.929c0-0.895,0.725-1.623,1.62-1.623h10.462L19.451,2.243L19.451,2.243z" data-original="#000000" class="active-path" data-old_color="#000000" fill="#FFFFFF"/>
	<path d="M27.557,8.173H11.346c-0.896,0-1.621,0.727-1.621,1.619v17.141c0,0.896,0.725,1.623,1.621,1.623h16.211   c0.893,0,1.619-0.727,1.619-1.623V9.792C29.176,8.899,28.449,8.173,27.557,8.173z" data-original="#000000" class="active-path" data-old_color="#000000" fill="#FFFFFF"/>
	<g>
	</g>
	<g>
	</g>
	<g>
	</g>
	<g>
	</g>
	<g>
	</g>
	<g>
	</g>
	<g>
	</g>
	<g>
	</g>
	<g>
	</g>
	<g>
	</g>
	<g>
	</g>
	<g>
	</g>
	<g>
	</g>
	<g>
	</g>
	<g>
	</g>
</g></g> </svg>
