<?xml version="1.0"?>
<svg xmlns="http://www.w3.org/2000/svg" height="512px" viewBox="0 -20 512.00788 512" width="512px" class=""><g><path d="m481.128906 247.324219c-8.21875-.992188-15.691406 4.890625-16.671875 13.117187-12.328125 103.289063-100.296875 181.183594-204.621093 181.183594-47.984376 0-94.703126-16.828125-131.550782-47.378906-32.460937-26.914063-55.90625-63.230469-67.078125-103.441406l17.921875 9.84375c7.261719 3.988281 16.378906 1.335937 20.367188-5.925782 3.988281-7.261718 1.335937-16.382812-5.925782-20.371094l-46.03125-25.28125c-7.253906-3.984374-16.367187-1.339843-20.359374 5.910157l-25.316407 45.972656c-3.996093 7.257813-1.351562 16.378906 5.902344 20.375 9.359375 4.289063 16.636719.339844 20.375-5.902344l5.886719-10.691406c13.402344 43.730469 39.53125 83.105469 75.109375 112.605469 42.21875 35.003906 95.738281 54.28125 150.695312 54.28125 119.511719 0 220.285157-89.257813 234.410157-207.628906.984374-8.222657-4.890626-15.6875-13.113282-16.667969zm0 0" data-original="#000000" class="active-path" data-old_color="#000000" fill="#05DA3E"/><path d="m502.933594 128.09375c-7.601563-3.277344-16.433594.226562-19.710938 7.832031l-4.722656 10.953125c-15.402344-37.597656-40.539062-71.121094-72.742188-96.445312-41.953124-32.992188-92.414062-50.42968775-145.921874-50.42968775-54.476563 0-107.625 18.97265575-149.660157 53.42968775-41.457031 33.976562-70.347656 81.398437-81.347656 133.523437-1.710937 8.105469 3.476563 16.0625 11.582031 17.773438 10.015625.328125 16.28125-4.519531 17.769532-11.578125 9.597656-45.472656 34.816406-86.851563 71.011718-116.519532 36.6875-30.070312 83.085938-46.628906 130.644532-46.628906 46.714843 0 90.765624 15.21875 127.378906 44.007813 29.683594 23.34375 52.488281 54.648437 65.667968 89.679687l-18.988281-8.167968c-7.605469-3.269532-16.433593.242187-19.707031 7.851562s.242188 16.433594 7.851562 19.707031l48.25 20.753907c8.667969 2.675781 16.007813 1.183593 19.703126-7.839844l20.777343-48.191406c3.28125-7.605469-.226562-16.429688-7.835937-19.710938zm0 0" data-original="#000000" class="active-path" data-old_color="#000000" fill="#05DA3E"/><path d="m168.539062 269.246094c-8.28125 0-15 6.714844-15 15v6.011718c0 31.511719 25.664063 57.148438 57.207032 57.148438h6.234375v26.699219c0 8.285156 6.71875 15 15 15 8.285156 0 15-6.714844 15-15v-26.699219h18.035156v26.699219c0 8.285156 6.714844 15 15 15 8.28125 0 15-6.714844 15-15v-26.699219h6.234375c31.542969 0 57.207031-25.636719 57.207031-57.148438v-8.695312c0-22.453125-15.117187-42.351562-36.761719-48.394531l-26.683593-7.449219v-73.628906h6.238281c15 0 27.207031 12.179687 27.207031 27.152344v2.414062c0 8.28125 6.714844 15 14.996094 15 8.285156 0 15-6.71875 15-15v-2.414062c0-31.515626-25.660156-57.152344-57.203125-57.152344h-6.238281v-24.566406c0-8.285157-6.714844-15-14.996094-15-8.285156 0-15 6.714843-15 15v24.566406h-18.035156v-24.566406c0-8.285157-6.714844-15-15-15-8.285157 0-15 6.714843-15 15v24.566406h-6.238281c-31.539063 0-57.203126 25.636718-57.203126 57.152344 0 22.449218 15.117188 42.347656 36.757813 48.390624l26.683594 7.449219v82.324219h-6.234375c-15 0-27.207032-12.179688-27.207032-27.148438v-6.011718c0-8.285156-6.714843-15-15-15zm145.09375-7.183594c8.726563 2.4375 14.824219 10.453125 14.824219 19.496094v8.699218c0 14.96875-12.203125 27.148438-27.203125 27.148438h-6.238281v-60.542969zm-48.617187-109.972656v65.253906l-18.035156-5.035156v-60.21875zm-66.652344 46.648437c-8.726562-2.4375-14.824219-10.453125-14.824219-19.5 0-14.96875 12.207032-27.148437 27.207032-27.148437h6.234375v51.84375zm48.617188 44.71875 18.035156 5.03125v68.917969h-18.035156zm0 0" data-original="#000000" class="active-path" data-old_color="#000000" fill="#05DA3E"/></g> </svg>
