<svg xmlns="http://www.w3.org/2000/svg" viewBox="0 0 548 82.84"><defs><style>.cls-1{font-size:63.08px;font-family:AgencyFB-Bold, Agency FB;font-weight:700;letter-spacing:-0.03em;}.cls-1,.cls-4{fill:#05af32;}.cls-2{fill:#dd8843;}.cls-3{fill:#7721ba;}.cls-5{fill:#c11d6f;}</style></defs><title>Asset 2</title><g id="Layer_2" data-name="Layer 2"><g id="Layer_1-2" data-name="Layer 1"><text class="cls-1" transform="translate(191.18 62.92)">Wave Downloader</text><path class="cls-2" d="M155.21,3.8c1.95,2.09,4.68,3.5,7,5.19a53.78,53.78,0,0,1,8.43,8.23,41.08,41.08,0,0,1,6.76,10.34,38,38,0,0,1-1.68,33.51,43.45,43.45,0,0,1-16,16.18,34.14,34.14,0,0,1-13.05,4.62c-5.08.59-10.12-.58-15.2-.58,12.94,0,26.42-6.58,33.95-17.18,8.28-11.64,7-27.23,2.22-40A61.57,61.57,0,0,0,155.21,3.8Z"/><path class="cls-3" d="M113,31.23c2.68-2.32,5.24-4.93,8.5-6.43a14.85,14.85,0,0,1,10.2-.53,19.82,19.82,0,0,1,8.3,5.3,13.71,13.71,0,0,1,3.75,8.65c.57,6.82-4,12.2-10,14.89-7.08,3.18-14.92,2.31-22-.43a74,74,0,0,1-12.45-6.49,102.66,102.66,0,0,1-11.92-8.7c3.24,2.76,7.66,4.1,11.55,5.65,4.61,1.83,9.51,3.35,14.51,3.39,4.24,0,8.38-1.26,11-4.79,2.37-3.2,2.82-7.65-1-9.92a11.83,11.83,0,0,0-11.31.18Z"/><path class="cls-4" d="M133.84,75c-11.88.77-23.48-3.86-33.63-9.64C90.47,59.78,81.93,52.3,72,47.11,63.37,42.62,53,40,43.23,40.84a26.55,26.55,0,0,0-12.29,4A23.06,23.06,0,0,0,21.83,56c-1.69,4.9-1.2,10.32-1.43,15.42-.1,2.46-.3,4.92-.38,7.38,0,1.34-.06,2.68-.09,4L0,65.08l13.13.24c-.21,0-.12.75,0,.82s.23-1.36.24-1.59a40.93,40.93,0,0,1,.76-5.84A27,27,0,0,1,18.78,48a50,50,0,0,1,8.74-8.39c5.3-4.32,11.71-6.46,18.44-7.17a42.33,42.33,0,0,1,10.76.37,29.9,29.9,0,0,1,7.66,2.45c2.76,1.22,5.59,2.23,8.39,3.36a144.22,144.22,0,0,1,17.32,8.32c5.46,3.11,10.74,6.46,16.45,9.14a75.53,75.53,0,0,0,17.73,6,23.21,23.21,0,0,0,10.19.16,27.05,27.05,0,0,0,9.27-4.53c4.72-3.44,6.53-7.87,7.53-13.55,3.3-18.71-7.7-26.41-25.32-29.72s-25.31,18.71-25.31,18.71c-3.3-15.4,8.81-31.91,26.42-33,12.08-.75,24.14,4.36,31.38,14.19,4.56,6.2,6.95,13.71,7.84,21.29a39.63,39.63,0,0,1-.3,13.13A31.44,31.44,0,0,1,161,60,36.31,36.31,0,0,1,133.84,75Z"/><path class="cls-5" d="M129.56,81c-7.51,2.19-19-.24-26.22-2.53C92.61,75.1,83.93,68.74,73.74,64.1,64.67,60,58,55.51,48,54.34c-6.9-.8-16,.2-18,7.41h.18v5.57H43.3L23,82c0-5.7,0-11.4,0-17.1,0-4.55,2-8.38,5-11.72a24.94,24.94,0,0,1,10.85-7.45,24.49,24.49,0,0,1,11.57-.59c8.33,1.44,15.93,5.77,23.15,9.95,8.4,4.86,16.62,10,25.19,14.59C108.38,74.75,118.73,79.29,129.56,81Z"/></g></g></svg>